<svg width="26" height="26" viewBox="0 0 26 26" fill="none" xmlns="http://www.w3.org/2000/svg">
<path fill-rule="evenodd" clip-rule="evenodd" d="M12.8255 0.133823C13.0179 -0.00396454 13.2641 -0.0376631 13.4854 0.0435026L25.5224 4.4586C25.809 4.5637 26 4.84065 26 5.15095V20.8491C26 21.1594 25.809 21.4363 25.5224 21.5414L13.4854 25.9565C13.3301 26.0134 13.1604 26.0145 13.0045 25.9595L0.485976 21.5444C0.199345 21.4433 0.00525019 21.1705 0.000104714 20.8615C-0.00504076 20.5525 0.179859 20.2732 0.46296 20.1623L12.5185 15.438V0.735854C12.5185 0.496228 12.633 0.271611 12.8255 0.133823ZM13.2356 16.7338L2.82695 20.8127L13.236 24.4838L23.2443 20.8128L13.2356 16.7338ZM24.5556 19.7622L21.4847 18.5107V11.0377C21.4847 10.7331 21.3005 10.46 21.0214 10.3508L17.2606 8.87911C17.0385 8.79221 16.7886 8.82231 16.5926 8.95957C16.3965 9.09684 16.2794 9.32367 16.2794 9.56604V16.3893L13.963 15.4452V5.70737L24.5556 9.59265V19.7622ZM24.5556 8.02849V5.66812L13.963 1.78284V4.14321L24.5556 8.02849ZM17.7238 16.9779L20.0403 17.922V11.5434L17.7238 10.6369V16.9779Z" fill="#202020"/>
<path d="M6.74717 5.85795C7.1552 5.72287 7.48598 5.96773 7.48598 6.40486V8.56885L9.62589 7.86043C10.0339 7.72535 10.3647 7.97021 10.3647 8.40734C10.3647 8.84447 10.0339 9.30833 9.62589 9.44341L7.48598 10.1518V12.3158C7.48598 12.7529 7.1552 13.2168 6.74717 13.3519C6.33913 13.487 6.00835 13.2421 6.00835 12.805V10.641L3.86844 11.3494C3.46041 11.4845 3.12963 11.2396 3.12963 10.8025C3.12963 10.3654 3.46041 9.90151 3.86844 9.76643L6.00835 9.05801V6.89403C6.00835 6.4569 6.33913 5.99303 6.74717 5.85795Z" fill="#202020"/>
</svg>
