<svg width="24" height="24" viewBox="0 0 24 24" fill="none" xmlns="http://www.w3.org/2000/svg">
<path d="M19.95 16C20.3955 16 20.7567 16.3612 20.7567 16.8067V19.0123H23.0933C23.5388 19.0123 23.9 19.3735 23.9 19.819C23.9 20.2646 23.5388 20.6257 23.0933 20.6257H20.7567V22.8313C20.7567 23.2769 20.3955 23.6381 19.95 23.6381C19.5045 23.6381 19.1433 23.2769 19.1433 22.8313V20.6257H16.8067C16.3612 20.6257 16 20.2646 16 19.819C16 19.3735 16.3612 19.0123 16.8067 19.0123H19.1433V16.8067C19.1433 16.3612 19.5045 16 19.95 16Z" fill="#83868B"/>
<path fill-rule="evenodd" clip-rule="evenodd" d="M0.563721 3C0.563721 1.48122 1.79494 0.25 3.31372 0.25C4.5725 0.25 5.63374 1.09575 5.9602 2.25H17.3535C17.68 1.09575 18.7412 0.25 20 0.25C21.5188 0.25 22.75 1.48122 22.75 3C22.75 4.25878 21.9043 5.32002 20.75 5.64648V13.5C20.75 13.9142 20.4142 14.25 20 14.25C19.5858 14.25 19.25 13.9142 19.25 13.5V5.64648C18.3342 5.38745 17.6125 4.66584 17.3535 3.75H5.9602C5.7025 4.66116 4.98691 5.38008 4.07773 5.64248L4.06445 17.3537C4.97994 17.6129 5.70124 18.3344 5.9602 19.25H13.5C13.9142 19.25 14.25 19.5858 14.25 20C14.25 20.4142 13.9142 20.75 13.5 20.75H5.9602C5.63374 21.9043 4.5725 22.75 3.31372 22.75C1.79494 22.75 0.563721 21.5188 0.563721 20C0.563721 18.741 1.40983 17.6795 2.56445 17.3533L2.57772 5.6504C1.41631 5.32859 0.563721 4.26386 0.563721 3ZM3.31372 1.75C2.62336 1.75 2.06372 2.30964 2.06372 3C2.06372 3.69036 2.62336 4.25 3.31372 4.25C4.00408 4.25 4.56372 3.69036 4.56372 3C4.56372 2.30964 4.00408 1.75 3.31372 1.75ZM20 1.75C19.3096 1.75 18.75 2.30964 18.75 3C18.75 3.69036 19.3096 4.25 20 4.25C20.6904 4.25 21.25 3.69036 21.25 3C21.25 2.30964 20.6904 1.75 20 1.75ZM3.31372 18.75C2.62336 18.75 2.06372 19.3096 2.06372 20C2.06372 20.6904 2.62336 21.25 3.31372 21.25C4.00408 21.25 4.56372 20.6904 4.56372 20C4.56372 19.3096 4.00408 18.75 3.31372 18.75Z" fill="#202020"/>
</svg>
