<svg width="20" height="24" viewBox="0 0 20 24" fill="none" xmlns="http://www.w3.org/2000/svg">
<path fill-rule="evenodd" clip-rule="evenodd" d="M6.59172 1.65612C7.44614 0.820681 8.60663 0.349976 9.81828 0.349976C11.0299 0.349976 12.1904 0.82068 13.0448 1.65612C13.899 2.49129 14.3774 3.62233 14.3774 4.79998V6.34998H18.4092C18.6444 6.34998 18.8684 6.4414 19.0323 6.6017C19.196 6.76174 19.2865 6.97711 19.2865 7.19998V20.4C19.2865 21.2594 18.9374 22.0852 18.3134 22.6953C17.6891 23.3057 16.8408 23.65 15.9546 23.65H3.68192C2.79576 23.65 1.94743 23.3057 1.32317 22.6953C0.699172 22.0852 0.350098 21.2594 0.350098 20.4V7.19998C0.350098 6.97711 0.440568 6.76174 0.604249 6.6017C0.768197 6.4414 0.992197 6.34998 1.22737 6.34998H5.25919V4.79998C5.25919 3.62233 5.73756 2.49129 6.59172 1.65612ZM9.81828 2.04998C9.07697 2.04998 8.36449 2.33784 7.83796 2.85267C7.31117 3.36775 7.01373 4.06806 7.01373 4.79998V6.34998H12.6228V4.79998C12.6228 4.06806 12.3254 3.36775 11.7986 2.85267C11.2721 2.33784 10.5596 2.04998 9.81828 2.04998ZM5.25919 8.04998H2.10464V20.4C2.10464 20.8136 2.27278 21.2087 2.56941 21.4988C2.73574 21.6614 2.96046 21.7704 3.14728 21.8378C3.33244 21.9047 3.53468 21.95 3.68192 21.95H15.9546C16.3705 21.95 16.7708 21.7885 17.0671 21.4988C17.3638 21.2087 17.5319 20.8136 17.5319 20.4V8.04998H14.3774V9.59998C14.3774 9.82284 14.2869 10.0382 14.1232 10.1983C13.9593 10.3586 13.7353 10.45 13.5001 10.45C13.2649 10.45 13.0409 10.3586 12.877 10.1983C12.7133 10.0382 12.6228 9.82284 12.6228 9.59998V8.04998H7.01373V9.59998C7.01373 9.82284 6.92326 10.0382 6.75958 10.1983C6.59564 10.3586 6.37163 10.45 6.13646 10.45C5.90129 10.45 5.67729 10.3586 5.51334 10.1983C5.34966 10.0382 5.25919 9.82284 5.25919 9.59998V8.04998Z" fill="#202020"/>
</svg>
