<svg width="22" height="21" viewBox="0 0 22 21" fill="none" xmlns="http://www.w3.org/2000/svg">
<path d="M18.9373 16.0729L4.7823 16.0729C4.57045 16.0729 4.36728 15.9887 4.21748 15.8389C4.06768 15.6891 3.98352 15.4859 3.98352 15.2741C3.98352 15.0622 4.06768 14.8591 4.21748 14.7093C4.36728 14.5595 4.57045 14.4753 4.7823 14.4753L17.2052 14.4753C17.7393 14.4754 18.2581 14.297 18.6792 13.9684C19.1003 13.6399 19.3996 13.1802 19.5296 12.6621L21.2007 2.58799C21.2306 2.4701 21.2332 2.34693 21.2083 2.22788C21.1833 2.10883 21.1316 1.99705 21.0569 1.90105C20.9792 1.80258 20.8794 1.7238 20.7656 1.67106C20.6518 1.61833 20.5272 1.59313 20.4019 1.59751L3.80216 1.59755C3.63736 1.13142 3.33242 0.727681 2.92915 0.441672C2.52588 0.155664 2.04402 0.00138947 1.54962 0H0.798773C0.586925 0 0.383754 0.0841562 0.233955 0.233955C0.0841562 0.383754 0 0.586925 0 0.798773C0 1.01062 0.0841562 1.21379 0.233955 1.36359C0.383754 1.51339 0.586925 1.59755 0.798773 1.59755H1.54962C1.73209 1.59223 1.91087 1.64957 2.05621 1.76003C2.20154 1.87048 2.30466 2.02738 2.34839 2.20461L2.39632 2.58802L4.56663 12.8778C3.93108 12.9064 3.33293 13.1863 2.90376 13.6559C2.47458 14.1255 2.24954 14.7464 2.27814 15.3819C2.30674 16.0175 2.58664 16.6156 3.05626 17.0448C3.52588 17.474 4.14675 17.699 4.7823 17.6704H4.92607C4.7947 18.0324 4.75249 18.4206 4.80301 18.8024C4.85353 19.1841 4.99529 19.548 5.21628 19.8633C5.43728 20.1786 5.73101 20.4361 6.0726 20.6138C6.41418 20.7915 6.79356 20.8843 7.17861 20.8843C7.56367 20.8843 7.94305 20.7915 8.28463 20.6138C8.62622 20.4361 8.91995 20.1786 9.14094 19.8633C9.36194 19.548 9.5037 19.1841 9.55422 18.8024C9.60474 18.4206 9.56252 18.0324 9.43115 17.6704L14.2885 17.6704C14.1571 18.0324 14.1149 18.4206 14.1654 18.8024C14.2159 19.1841 14.3577 19.548 14.5787 19.8633C14.7997 20.1787 15.0934 20.4361 15.435 20.6138C15.7766 20.7915 16.1559 20.8843 16.541 20.8843C16.926 20.8843 17.3054 20.7915 17.647 20.6138C17.9886 20.4361 18.2823 20.1787 18.5033 19.8633C18.7243 19.548 18.8661 19.1841 18.9166 18.8024C18.9671 18.4206 18.9249 18.0324 18.7935 17.6704H18.9373C19.1492 17.6704 19.3523 17.5863 19.5021 17.4365C19.6519 17.2867 19.7361 17.0835 19.7361 16.8716C19.7361 16.6598 19.6519 16.4566 19.5021 16.3068C19.3523 16.157 19.1492 16.0729 18.9373 16.0729ZM19.3795 3.19506L17.98 12.2707C17.9362 12.4479 17.8331 12.6048 17.6878 12.7153C17.5424 12.8258 17.3637 12.8831 17.1812 12.8778L6.20411 12.8778L4.21752 3.19509L19.3795 3.19506ZM7.17861 19.268C7.02063 19.268 6.8662 19.2211 6.73484 19.1333C6.60348 19.0456 6.5011 18.9208 6.44065 18.7749C6.38019 18.6289 6.36437 18.4683 6.39519 18.3134C6.42601 18.1584 6.50209 18.0161 6.6138 17.9044C6.72551 17.7927 6.86784 17.7166 7.02278 17.6858C7.17773 17.6549 7.33834 17.6708 7.48429 17.7312C7.63025 17.7917 7.755 17.8941 7.84277 18.0254C7.93054 18.1568 7.97739 18.3112 7.97739 18.4692C7.97739 18.681 7.89323 18.8842 7.74343 19.034C7.59363 19.1838 7.39046 19.268 7.17861 19.268ZM16.541 19.268C16.383 19.268 16.2286 19.2211 16.0972 19.1333C15.9659 19.0456 15.8635 18.9208 15.803 18.7749C15.7426 18.6289 15.7267 18.4683 15.7576 18.3134C15.7884 18.1584 15.8645 18.0161 15.9762 17.9044C16.0879 17.7927 16.2302 17.7166 16.3852 17.6858C16.5401 17.6549 16.7007 17.6708 16.8467 17.7312C16.9926 17.7917 17.1174 17.8941 17.2052 18.0254C17.2929 18.1568 17.3398 18.3112 17.3398 18.4692C17.3398 18.681 17.2556 18.8842 17.1058 19.034C16.956 19.1838 16.7528 19.268 16.541 19.268Z" fill="#202020"/>
<path d="M12.5452 7.20741H14.8817C15.3273 7.20741 15.6885 7.56859 15.6885 8.01413C15.6885 8.45966 15.3273 8.82084 14.8817 8.82084H12.5452H10.9317H8.59517C8.14963 8.82084 7.78845 8.45966 7.78845 8.01413C7.78845 7.56859 8.14963 7.20741 8.59517 7.20741H10.9317H12.5452Z" fill="#202020"/>
</svg>
