<svg width="26" height="26" viewBox="0 0 26 26" fill="none" xmlns="http://www.w3.org/2000/svg">
<path d="M24.6712 7.55503L18.5002 1.32903C18.3974 1.22708 18.2755 1.14642 18.1414 1.09168C18.0074 1.03694 17.8639 1.00919 17.7192 1.01003C17.4306 1.01124 17.154 1.12581 16.9492 1.32903L1.32915 16.894C1.12427 17.1001 1.00928 17.3789 1.00928 17.6695C1.00928 17.9601 1.12427 18.2389 1.32915 18.445L7.55515 24.671C7.65793 24.773 7.77983 24.8536 7.91385 24.9084C8.04787 24.9631 8.19138 24.9909 8.33615 24.99C8.62472 24.9888 8.90126 24.8742 9.10615 24.671L12.2191 21.558L21.5582 12.219L24.6712 9.10603C24.876 8.89993 24.991 8.62113 24.991 8.33053C24.991 8.03992 24.876 7.76113 24.6712 7.55503V7.55503ZM20.7771 9.88703L19.9962 9.10603C19.7901 8.90115 19.5113 8.78616 19.2207 8.78616C18.93 8.78616 18.6512 8.90115 18.4452 9.10603C18.342 9.20829 18.2602 9.32995 18.2044 9.46399C18.1485 9.59804 18.1198 9.74181 18.1198 9.88703C18.1198 10.0322 18.1485 10.176 18.2044 10.3101C18.2602 10.4441 18.342 10.5658 18.4452 10.668L19.2261 11.449L17.6641 13L15.3321 10.668C15.1217 10.4878 14.851 10.3937 14.5742 10.4043C14.2973 10.415 14.0347 10.5298 13.8388 10.7257C13.6429 10.9216 13.5282 11.1842 13.5175 11.4611C13.5068 11.7379 13.6009 12.0086 13.7812 12.219L16.1131 14.551L14.5511 16.113L13.7812 15.332C13.574 15.1249 13.2931 15.0085 13.0001 15.0085C12.7072 15.0085 12.4263 15.1249 12.2191 15.332C12.012 15.5392 11.8956 15.8201 11.8956 16.113C11.8956 16.406 12.012 16.6869 12.2191 16.894L13.0001 17.664L11.4492 19.226L9.10615 16.894C8.90005 16.6892 8.62125 16.5742 8.33065 16.5742C8.04005 16.5742 7.76125 16.6892 7.55515 16.894C7.35027 17.1001 7.23528 17.3789 7.23528 17.6695C7.23528 17.9601 7.35027 18.2389 7.55515 18.445L9.88715 20.777L8.33615 22.339L3.66115 17.664L17.6641 3.66103L22.3391 8.33603L20.7771 9.88703Z" fill="#202020" stroke="white" stroke-width="0.6"/>
</svg>
